<svg width="223" height="223" viewBox="0 0 223 223" fill="none" xmlns="http://www.w3.org/2000/svg">
<g clip-path="url(#clip0_440_33)">
<path d="M174.2 52.4C170.067 54.5333 166.333 55.6 163 55.6C157.667 55.6 151.933 53.2 145.8 48.4L123.8 69.4L128.6 74.2L132.4 71C135.2 73.6667 139.933 75 146.6 75H147.6L148 74.8H148.4L148.6 98.2H148.2L146.6 98.6H145.8C145 99 143 99.2 139.8 99.2C139.667 99.3333 138.933 99.4 137.6 99.4C132.533 99.4 129 98.7333 127 97.4C123.533 91.1333 120.733 86.0667 118.6 82.2C116.6 78.2 114.867 74.8667 113.4 72.2C107.933 64.2 103.533 58.6667 100.2 55.6C95.1333 50.9333 89 48.6 81.8 48.6C74.4667 48.6 68.3333 51.4667 63.4 57.2C58.3333 62.6667 55.8 69 55.8 76.2C55.8 81.4 57.2 84.2667 60 84.8L59.6 84.4H61C61.4 79.8667 64.4 76.2 70 73.4C70.2667 73.1333 70.6 73 71 73C71.5333 73 72 72.9333 72.4 72.8C73.3333 72.5333 74.2667 72.3333 75.2 72.2C76.2667 71.9333 77.1333 71.5333 77.8 71H78.2V103.8C75.8 104.067 73.8667 104.333 72.4 104.6C70.9333 104.867 69.9333 105.067 69.4 105.2C63.5333 107.6 60.6 112.867 60.6 121C60.6 124.733 61.8 128 64.2 130.8C66.6 133.6 69.5333 135 73 135V133.6V132.8L72.8 132.6C72.8 131.533 73.0667 130.467 73.6 129.4C74.2667 128.2 75.0667 127.6 76 127.6H76.4C76.8 127.867 77.1333 128.067 77.4 128.2C77.6667 128.2 77.9333 128.267 78.2 128.4V155.2C65 159.2 56.4667 168.267 52.6 182.4C53.4 182.133 54.3333 181.733 55.4 181.2C56.6 180.8 57.2 180.6 57.2 180.6C57.7333 180.333 58.4 179.933 59.2 179.4V179.6C64.8 176.933 70.6 175.6 76.6 175.6C84.7333 175.6 93.4667 178.533 102.8 184.4L118.8 163.4L114.4 159L112 162.2C108.133 159.533 104.2 157.533 100.2 156.2C96.2 154.733 92 154 87.6 154H86.4L86 154.2H85.8V135C89 132.867 94.1333 131.8 101.2 131.8C106.533 131.8 112.667 133.267 119.6 136.2C120.267 137.667 120.933 139.133 121.6 140.6C122.267 141.933 122.933 143.2 123.6 144.4C126.267 149.6 128.267 153.733 129.6 156.8C131.067 159.733 132.467 162.2 133.8 164.2H133.6C141.067 177.667 148.067 184.4 154.6 184.4H155.8V73.6C156.2 73.4667 156.667 73.3333 157.2 73.2C157.867 72.9333 158.6 72.5333 159.4 72V72.2C163 70.3333 166.333 67.8 169.4 64.6C171.4 62.6 172.867 60.6667 173.8 58.8C174.733 56.9333 175.267 55.0667 175.4 53.2L174.2 52.4ZM102.2 124.4C98.0667 124.4 92.6 125.333 85.8 127.2V73.6C88.8667 75.0667 92.6 79.8 97 87.8C99.1333 92.0667 102.133 98.4667 106 107C108.267 111.933 110.133 116 111.6 119.2C113.067 122.267 114.2 124.6 115 126.2C110.733 125 106.467 124.4 102.2 124.4ZM135.2 116.6C134 113.933 133 111.733 132.2 110C131.4 108.267 130.8 106.933 130.4 106C132 106.533 133.733 106.8 135.6 106.8H141C142.6 106.8 144 106.733 145.2 106.6C146.533 106.467 147.6 106.2 148.4 105.8L148.6 141.6C146.6 138.667 144.467 135.2 142.2 131.2C140.067 127.067 137.733 122.2 135.2 116.6Z" fill="white"/>
<path d="M169.2 49.4C165.067 51.5333 161.333 52.6 158 52.6C152.667 52.6 146.933 50.2 140.8 45.4L118.8 66.4L123.6 71.2L127.4 68C130.2 70.6667 134.933 72 141.6 72H142.6L143 71.8H143.4L143.6 95.2H143.2L141.6 95.6H140.8C140 96 138 96.2 134.8 96.2C134.667 96.3333 133.933 96.4 132.6 96.4C127.533 96.4 124 95.7333 122 94.4C118.533 88.1333 115.733 83.0667 113.6 79.2C111.6 75.2 109.867 71.8667 108.4 69.2C102.933 61.2 98.5333 55.6667 95.2 52.6C90.1333 47.9333 84 45.6 76.8 45.6C69.4667 45.6 63.3333 48.4667 58.4 54.2C53.3333 59.6667 50.8 66 50.8 73.2C50.8 78.4 52.2 81.2667 55 81.8L54.6 81.4H56C56.4 76.8667 59.4 73.2 65 70.4C65.2667 70.1333 65.6 70 66 70C66.5333 70 67 69.9333 67.4 69.8C68.3333 69.5333 69.2667 69.3333 70.2 69.2C71.2667 68.9333 72.1333 68.5333 72.8 68H73.2V100.8C70.8 101.067 68.8667 101.333 67.4 101.6C65.9333 101.867 64.9333 102.067 64.4 102.2C58.5333 104.6 55.6 109.867 55.6 118C55.6 121.733 56.8 125 59.2 127.8C61.6 130.6 64.5333 132 68 132V130.6V129.8L67.8 129.6C67.8 128.533 68.0667 127.467 68.6 126.4C69.2667 125.2 70.0667 124.6 71 124.6H71.4C71.8 124.867 72.1333 125.067 72.4 125.2C72.6667 125.2 72.9333 125.267 73.2 125.4V152.2C60 156.2 51.4667 165.267 47.6 179.4C48.4 179.133 49.3333 178.733 50.4 178.2C51.6 177.8 52.2 177.6 52.2 177.6C52.7333 177.333 53.4 176.933 54.2 176.4V176.6C59.8 173.933 65.6 172.6 71.6 172.6C79.7333 172.6 88.4667 175.533 97.8 181.4L113.8 160.4L109.4 156L107 159.2C103.133 156.533 99.2 154.533 95.2 153.2C91.2 151.733 87 151 82.6 151H81.4L81 151.2H80.8V132C84 129.867 89.1333 128.8 96.2 128.8C101.533 128.8 107.667 130.267 114.6 133.2C115.267 134.667 115.933 136.133 116.6 137.6C117.267 138.933 117.933 140.2 118.6 141.4C121.267 146.6 123.267 150.733 124.6 153.8C126.067 156.733 127.467 159.2 128.8 161.2H128.6C136.067 174.667 143.067 181.4 149.6 181.4H150.8V70.6C151.2 70.4667 151.667 70.3333 152.2 70.2C152.867 69.9333 153.6 69.5333 154.4 69V69.2C158 67.3333 161.333 64.8 164.4 61.6C166.4 59.6 167.867 57.6667 168.8 55.8C169.733 53.9333 170.267 52.0667 170.4 50.2L169.2 49.4ZM97.2 121.4C93.0667 121.4 87.6 122.333 80.8 124.2V70.6C83.8667 72.0667 87.6 76.8 92 84.8C94.1333 89.0667 97.1333 95.4667 101 104C103.267 108.933 105.133 113 106.6 116.2C108.067 119.267 109.2 121.6 110 123.2C105.733 122 101.467 121.4 97.2 121.4ZM130.2 113.6C129 110.933 128 108.733 127.2 107C126.4 105.267 125.8 103.933 125.4 103C127 103.533 128.733 103.8 130.6 103.8H136C137.6 103.8 139 103.733 140.2 103.6C141.533 103.467 142.6 103.2 143.4 102.8L143.6 138.6C141.6 135.667 139.467 132.2 137.2 128.2C135.067 124.067 132.733 119.2 130.2 113.6Z" fill="white"/>
<path d="M169.2 49.4L169.755 48.5679L169.265 48.2413L168.741 48.5114L169.2 49.4ZM140.8 45.4L141.416 44.6125L140.735 44.0794L140.11 44.6766L140.8 45.4ZM118.8 66.4L118.11 65.6766L117.369 66.3834L118.093 67.1071L118.8 66.4ZM123.6 71.2L122.893 71.9071L123.542 72.5562L124.244 71.9649L123.6 71.2ZM127.4 68L128.09 67.2759L127.441 66.6581L126.756 67.2351L127.4 68ZM142.6 72V73H142.836L143.047 72.8944L142.6 72ZM143 71.8V70.8H142.764L142.553 70.9056L143 71.8ZM143.4 71.8L144.4 71.7914L144.391 70.8H143.4V71.8ZM143.6 95.2V96.2H144.609L144.6 95.1914L143.6 95.2ZM143.2 95.2V94.2H143.077L142.957 94.2299L143.2 95.2ZM141.6 95.6V96.6H141.723L141.843 96.5701L141.6 95.6ZM140.8 95.6V94.6H140.564L140.353 94.7056L140.8 95.6ZM134.8 96.2V95.2H134.386L134.093 95.4929L134.8 96.2ZM122 94.4L121.125 94.8841L121.243 95.097L121.445 95.232L122 94.4ZM113.6 79.2L112.706 79.6472L112.715 79.6653L112.724 79.6831L113.6 79.2ZM108.4 69.2L109.276 68.7181L109.253 68.6757L109.226 68.6358L108.4 69.2ZM95.2 52.6L94.5225 53.3355L94.5229 53.3359L95.2 52.6ZM58.4 54.2L59.1334 54.8798L59.146 54.8662L59.158 54.8522L58.4 54.2ZM55 81.8L54.8129 82.7823L58.0045 83.3902L55.7071 81.0929L55 81.8ZM54.6 81.4V80.4H52.1858L53.8929 82.1071L54.6 81.4ZM56 81.4V82.4H56.9157L56.9961 81.4879L56 81.4ZM65 70.4L65.4472 71.2944L65.5924 71.2219L65.7071 71.1071L65 70.4ZM67.4 69.8L67.1253 68.8385L67.1044 68.8444L67.0838 68.8513L67.4 69.8ZM70.2 69.2L70.3414 70.1899L70.3925 70.1826L70.4425 70.1701L70.2 69.2ZM72.8 68V67H72.4492L72.1753 67.2191L72.8 68ZM73.2 68H74.2V67H73.2V68ZM73.2 100.8L73.3104 101.794L74.2 101.695V100.8H73.2ZM64.4 102.2L64.1575 101.23L64.0878 101.247L64.0214 101.274L64.4 102.2ZM68 132V133H69V132H68ZM68 129.8H69V129.386L68.7071 129.093L68 129.8ZM67.8 129.6H66.8V130.014L67.0929 130.307L67.8 129.6ZM68.6 126.4L67.7258 125.914L67.7153 125.933L67.7056 125.953L68.6 126.4ZM71.4 124.6L71.9547 123.768L71.7028 123.6H71.4V124.6ZM72.4 125.2L71.9528 126.094L72.1639 126.2H72.4V125.2ZM73.2 125.4H74.2V124.782L73.6472 124.506L73.2 125.4ZM73.2 152.2L73.49 153.157L74.2 152.942V152.2H73.2ZM47.6 179.4L46.6354 179.136L46.1419 180.94L47.9162 180.349L47.6 179.4ZM50.4 178.2L50.0838 177.251L50.0164 177.274L49.9528 177.306L50.4 178.2ZM52.2 177.6L52.5162 178.549L52.5836 178.526L52.6472 178.494L52.2 177.6ZM54.2 176.4H55.2V174.531L53.6453 175.568L54.2 176.4ZM54.2 176.6H53.2V178.184L54.6299 177.503L54.2 176.6ZM97.8 181.4L97.2678 182.247L98.0416 182.733L98.5954 182.006L97.8 181.4ZM113.8 160.4L114.595 161.006L115.125 160.311L114.507 159.693L113.8 160.4ZM109.4 156L110.107 155.293L109.292 154.478L108.6 155.4L109.4 156ZM107 159.2L106.432 160.023L107.223 160.569L107.8 159.8L107 159.2ZM95.2 153.2L94.8557 154.139L94.8697 154.144L94.8838 154.149L95.2 153.2ZM81.4 151V150H81.1639L80.9528 150.106L81.4 151ZM81 151.2V152.2H81.2361L81.4472 152.094L81 151.2ZM80.8 151.2H79.8V152.2H80.8V151.2ZM80.8 132L80.2453 131.168L79.8 131.465V132H80.8ZM114.6 133.2L115.51 132.786L115.349 132.431L114.99 132.279L114.6 133.2ZM116.6 137.6L115.69 138.014L115.697 138.031L115.706 138.047L116.6 137.6ZM118.6 141.4L119.49 140.944L119.482 140.929L119.474 140.914L118.6 141.4ZM124.6 153.8L123.683 154.199L123.694 154.223L123.706 154.247L124.6 153.8ZM128.8 161.2V162.2H130.669L129.632 160.645L128.8 161.2ZM128.6 161.2V160.2H126.902L127.725 161.685L128.6 161.2ZM150.8 181.4V182.4H151.8V181.4H150.8ZM150.8 70.6L150.484 69.6513L149.8 69.8792V70.6H150.8ZM152.2 70.2L152.443 71.1701L152.508 71.1537L152.571 71.1285L152.2 70.2ZM154.4 69H155.4V67.1315L153.845 68.1679L154.4 69ZM154.4 69.2H153.4V70.8449L154.86 70.0877L154.4 69.2ZM164.4 61.6L163.693 60.8929L163.685 60.9004L163.678 60.9081L164.4 61.6ZM168.8 55.8L167.906 55.3528L167.906 55.3528L168.8 55.8ZM170.4 50.2L171.397 50.2712L171.439 49.6908L170.955 49.3679L170.4 50.2ZM80.8 124.2H79.8V125.511L81.0647 125.164L80.8 124.2ZM80.8 70.6L81.2315 69.6979L79.8 69.0133V70.6H80.8ZM92 84.8L92.8944 84.3528L92.8857 84.3353L92.8762 84.3181L92 84.8ZM101 104L100.089 104.413L100.091 104.417L101 104ZM106.6 116.2L105.691 116.617L105.694 116.624L105.698 116.631L106.6 116.2ZM110 123.2L109.729 124.163L111.905 124.775L110.894 122.753L110 123.2ZM130.2 113.6L129.288 114.01L129.289 114.012L130.2 113.6ZM127.2 107L126.292 107.419L126.292 107.419L127.2 107ZM125.4 103L125.716 102.051L123.604 101.347L124.481 103.394L125.4 103ZM140.2 103.6L140.1 102.605L140.09 102.606L140.2 103.6ZM143.4 102.8L144.4 102.794L144.391 101.186L142.953 101.906L143.4 102.8ZM143.6 138.6L142.774 139.163L144.618 141.869L144.6 138.594L143.6 138.6ZM137.2 128.2L136.311 128.659L136.32 128.676L136.33 128.693L137.2 128.2ZM168.741 48.5114C164.697 50.5988 161.123 51.6 158 51.6V53.6C161.543 53.6 165.436 52.4678 169.659 50.2886L168.741 48.5114ZM158 51.6C152.972 51.6 147.452 49.336 141.416 44.6125L140.184 46.1875C146.415 51.064 152.361 53.6 158 53.6V51.6ZM140.11 44.6766L118.11 65.6766L119.49 67.1233L141.49 46.1234L140.11 44.6766ZM118.093 67.1071L122.893 71.9071L124.307 70.4929L119.507 65.6929L118.093 67.1071ZM124.244 71.9649L128.044 68.7649L126.756 67.2351L122.956 70.4351L124.244 71.9649ZM126.71 68.7241C129.792 71.6587 134.849 73 141.6 73V71C135.018 71 130.608 69.6746 128.09 67.2759L126.71 68.7241ZM141.6 73H142.6V71H141.6V73ZM143.047 72.8944L143.447 72.6944L142.553 70.9056L142.153 71.1056L143.047 72.8944ZM143 72.8H143.4V70.8H143V72.8ZM142.4 71.8085L142.6 95.2085L144.6 95.1914L144.4 71.7914L142.4 71.8085ZM143.6 94.2H143.2V96.2H143.6V94.2ZM142.957 94.2299L141.357 94.6299L141.843 96.5701L143.443 96.1701L142.957 94.2299ZM141.6 94.6H140.8V96.6H141.6V94.6ZM140.353 94.7056C140.131 94.8166 139.593 94.9557 138.601 95.055C137.647 95.1503 136.384 95.2 134.8 95.2V97.2C136.416 97.2 137.753 97.1497 138.8 97.045C139.807 96.9443 140.669 96.7834 141.247 96.4944L140.353 94.7056ZM134.093 95.4929C134.21 95.3759 134.321 95.3303 134.341 95.3222C134.373 95.309 134.385 95.3079 134.363 95.3131C134.318 95.3235 134.223 95.3393 134.059 95.3541C133.738 95.3833 133.256 95.4 132.6 95.4V97.4C133.277 97.4 133.829 97.3833 134.241 97.3459C134.444 97.3274 134.641 97.3015 134.812 97.2619C134.898 97.2421 135 97.2139 135.103 97.1716C135.193 97.1343 135.357 97.0574 135.507 96.9071L134.093 95.4929ZM132.6 95.4C127.555 95.4 124.288 94.7236 122.555 93.5679L121.445 95.232C123.712 96.7431 127.512 97.4 132.6 97.4V95.4ZM122.875 93.9159C119.408 87.6494 116.609 82.5831 114.476 78.7169L112.724 79.6831C114.858 83.5502 117.658 88.6172 121.125 94.8841L122.875 93.9159ZM114.494 78.7528C112.491 74.746 110.751 71.4001 109.276 68.7181L107.524 69.6819C108.982 72.3332 110.709 75.654 112.706 79.6472L114.494 78.7528ZM109.226 68.6358C103.753 60.6273 99.2998 55.013 95.8771 51.8641L94.5229 53.3359C97.7669 56.3203 102.113 61.7726 107.574 69.7642L109.226 68.6358ZM95.8775 51.8644C90.6172 47.0194 84.2385 44.6 76.8 44.6V46.6C83.7615 46.6 89.6495 48.8472 94.5225 53.3355L95.8775 51.8644ZM76.8 44.6C69.1651 44.6 62.7585 47.6016 57.642 53.5477L59.158 54.8522C63.9082 49.3317 69.7682 46.6 76.8 46.6V44.6ZM57.6666 53.5202C52.4352 59.1646 49.8 65.7383 49.8 73.2H51.8C51.8 66.2617 54.2315 60.1687 59.1334 54.8798L57.6666 53.5202ZM49.8 73.2C49.8 75.8674 50.1555 78.059 50.9514 79.6888C51.7708 81.3665 53.0633 82.4491 54.8129 82.7823L55.1871 80.8177C54.1367 80.6176 53.3292 80.0001 52.7486 78.8112C52.1445 77.5743 51.8 75.7326 51.8 73.2H49.8ZM55.7071 81.0929L55.3071 80.6929L53.8929 82.1071L54.2929 82.5071L55.7071 81.0929ZM54.6 82.4H56V80.4H54.6V82.4ZM56.9961 81.4879C57.3547 77.4238 60.028 74.004 65.4472 71.2944L64.5528 69.5056C58.772 72.396 55.4453 76.3095 55.0039 81.3121L56.9961 81.4879ZM65.7071 71.1071C65.774 71.0402 65.8474 71 66 71V69C65.3526 69 64.7593 69.2264 64.2929 69.6929L65.7071 71.1071ZM66 71C66.6137 71 67.1914 70.9236 67.7162 70.7487L67.0838 68.8513C66.8086 68.943 66.453 69 66 69V71ZM67.6747 70.7615C68.5656 70.507 69.4544 70.3167 70.3414 70.1899L70.0586 68.21C69.0789 68.35 68.1011 68.5597 67.1253 68.8385L67.6747 70.7615ZM70.4425 70.1701C71.6101 69.8782 72.6183 69.426 73.4247 68.7809L72.1753 67.2191C71.6483 67.6407 70.9232 67.9884 69.9575 68.2298L70.4425 70.1701ZM72.8 69H73.2V67H72.8V69ZM72.2 68V100.8H74.2V68H72.2ZM73.0896 99.8061C70.6788 100.074 68.72 100.344 67.2211 100.616L67.5789 102.584C69.0134 102.323 70.9212 102.059 73.3104 101.794L73.0896 99.8061ZM67.2211 100.616C65.7573 100.882 64.7268 101.088 64.1575 101.23L64.6425 103.17C65.1399 103.046 66.1093 102.851 67.5789 102.584L67.2211 100.616ZM64.0214 101.274C60.8896 102.556 58.5094 104.621 56.9264 107.463C55.3529 110.289 54.6 113.82 54.6 118H56.6C56.6 114.047 57.3138 110.878 58.6736 108.437C60.0239 106.012 62.0437 104.244 64.7786 103.126L64.0214 101.274ZM54.6 118C54.6 121.969 55.8833 125.467 58.4407 128.451L59.9593 127.149C57.7167 124.533 56.6 121.498 56.6 118H54.6ZM58.4407 128.451C61.0169 131.456 64.2209 133 68 133V131C64.8458 131 62.1831 129.744 59.9593 127.149L58.4407 128.451ZM69 132V130.6H67V132H69ZM69 130.6V129.8H67V130.6H69ZM68.7071 129.093L68.5071 128.893L67.0929 130.307L67.2929 130.507L68.7071 129.093ZM68.8 129.6C68.8 128.706 69.0222 127.792 69.4944 126.847L67.7056 125.953C67.1111 127.142 66.8 128.361 66.8 129.6H68.8ZM69.4742 126.886C70.0561 125.838 70.5858 125.6 71 125.6V123.6C69.5475 123.6 68.4772 124.562 67.7258 125.914L69.4742 126.886ZM71 125.6H71.4V123.6H71V125.6ZM70.8453 125.432C71.2617 125.71 71.6336 125.935 71.9528 126.094L72.8472 124.306C72.633 124.198 72.3383 124.024 71.9547 123.768L70.8453 125.432ZM72.4 126.2C72.4939 126.2 72.6084 126.222 72.7528 126.294L73.6472 124.506C73.2583 124.311 72.8394 124.2 72.4 124.2V126.2ZM72.2 125.4V152.2H74.2V125.4H72.2ZM72.91 151.243C59.357 155.35 50.586 164.696 46.6354 179.136L48.5646 179.664C52.3473 165.837 60.643 157.05 73.49 153.157L72.91 151.243ZM47.9162 180.349C48.7753 180.062 49.7541 179.641 50.8472 179.094L49.9528 177.306C48.9126 177.826 48.0247 178.204 47.2838 178.451L47.9162 180.349ZM50.7162 179.149C50.7662 179.132 50.8889 179.091 50.9342 179.076C50.9826 179.06 51.0944 179.023 51.1381 179.008C51.2259 178.979 51.4347 178.909 51.5037 178.886C51.6481 178.838 51.6875 178.825 51.8131 178.783C51.8444 178.773 51.9201 178.747 51.9467 178.739C51.9877 178.725 51.9684 178.731 52.0082 178.718C52.0099 178.717 52.014 178.716 52.0157 178.716C52.0169 178.715 52.0181 178.715 52.0194 178.714C52.0206 178.714 52.0218 178.713 52.0231 178.713C52.0329 178.71 52.0279 178.711 52.0377 178.708C52.038 178.708 52.0662 178.699 52.0662 178.699C52.0674 178.698 52.0686 178.698 52.0697 178.698C52.0709 178.697 52.0721 178.697 52.0732 178.696C52.0748 178.696 52.0786 178.695 52.0802 178.694C52.0863 178.692 52.0879 178.691 52.0939 178.689C52.095 178.689 52.0962 178.689 52.0973 178.688C52.0984 178.688 52.0996 178.688 52.1007 178.687C52.1018 178.687 52.1029 178.686 52.1041 178.686C52.1052 178.686 52.1063 178.685 52.1074 178.685C52.1164 178.682 52.1119 178.683 52.1207 178.681C52.1267 178.679 52.141 178.674 52.1466 178.672C52.1477 178.672 52.1488 178.671 52.1498 178.671C52.1509 178.67 52.1519 178.67 52.153 178.67C52.154 178.669 52.1551 178.669 52.1561 178.669C52.1572 178.668 52.1582 178.668 52.1593 178.668C52.1603 178.667 52.1614 178.667 52.1624 178.667C52.1634 178.666 52.1645 178.666 52.1655 178.666C52.1666 178.665 52.1676 178.665 52.1686 178.665C52.1696 178.664 52.1707 178.664 52.1717 178.664C52.2155 178.649 52.224 178.646 52.2631 178.633C52.2901 178.624 52.2777 178.628 52.3035 178.62C52.3078 178.618 52.3184 178.615 52.3224 178.613C52.3265 178.612 52.3275 178.612 52.3315 178.61C52.3335 178.61 52.334 178.609 52.336 178.609C52.339 178.608 52.3375 178.608 52.3404 178.607C52.357 178.602 52.3919 178.59 52.4037 178.586C52.4069 178.585 52.4145 178.583 52.4174 178.582C52.4181 178.581 52.4199 178.581 52.4206 178.581C52.4212 178.58 52.4217 178.58 52.4222 178.58C52.4228 178.58 52.4233 178.58 52.4238 178.579C52.4244 178.579 52.4249 178.579 52.4254 178.579C52.4259 178.579 52.4265 178.579 52.427 178.578C52.4275 178.578 52.428 178.578 52.4286 178.578C52.4291 178.578 52.4296 178.578 52.4301 178.577C52.4356 178.576 52.4486 178.571 52.4529 178.57C52.458 178.568 52.4684 178.565 52.4723 178.563C52.4737 178.563 52.473 178.563 52.4745 178.563C52.4768 178.562 52.4742 178.563 52.4766 178.562C52.4769 178.562 52.4773 178.562 52.4776 178.562C52.4779 178.561 52.4783 178.561 52.4786 178.561C52.479 178.561 52.4793 178.561 52.4796 178.561C52.48 178.561 52.4803 178.561 52.4806 178.561C52.4807 178.561 52.4826 178.56 52.4826 178.56C52.4829 178.56 52.4832 178.56 52.4835 178.56C52.4839 178.559 52.4842 178.559 52.4845 178.559C52.4861 178.559 52.4865 178.559 52.4881 178.558C52.4912 178.557 52.4985 178.555 52.5004 178.554C52.5094 178.551 52.5014 178.554 52.5092 178.551C52.5093 178.551 52.5095 178.551 52.5096 178.551C52.5098 178.551 52.5099 178.551 52.51 178.551C52.5104 178.551 52.5105 178.551 52.5108 178.55C52.5126 178.55 52.5106 178.551 52.5123 178.55C52.5123 178.55 52.5135 178.55 52.5135 178.55C52.5137 178.55 52.5138 178.55 52.514 178.549C52.514 178.549 52.5145 178.549 52.5145 178.549C52.5145 178.549 52.5146 178.549 52.5147 178.549C52.5148 178.549 52.5148 178.549 52.5149 178.549C52.5149 178.549 52.515 178.549 52.5151 178.549C52.5151 178.549 52.5152 178.549 52.5152 178.549C52.5153 178.549 52.5153 178.549 52.5154 178.549C52.5154 178.549 52.5155 178.549 52.5155 178.549C52.5156 178.549 52.5156 178.549 52.5157 178.549C52.5157 178.549 52.5158 178.549 52.5158 178.549C52.5158 178.549 52.5159 178.549 52.5159 178.549C52.5159 178.549 52.516 178.549 52.516 178.549C52.5161 178.549 52.516 178.549 52.5161 178.549C52.5161 178.549 52.5162 178.549 52.5162 178.549C52.5162 178.549 52.5162 178.549 52.5162 178.549C52.5162 178.549 52.5162 178.549 52.5162 178.549C52.5162 178.549 52.5162 178.549 52.2 177.6C51.8838 176.651 51.8838 176.651 51.8838 176.651C51.8838 176.651 51.8838 176.651 51.8837 176.651C51.8837 176.651 51.8837 176.651 51.8837 176.651C51.8836 176.651 51.8834 176.651 51.8833 176.651C51.8833 176.651 51.8823 176.652 51.882 176.652C51.8808 176.652 51.8791 176.653 51.8767 176.654C51.8762 176.654 51.8609 176.659 51.8556 176.661C51.8452 176.664 51.8005 176.679 51.7713 176.689C51.7308 176.702 51.5493 176.763 51.4338 176.801C51.4213 176.805 51.3314 176.835 51.3142 176.841C51.2564 176.86 51.2432 176.865 51.1806 176.886C51.1572 176.894 51.1332 176.902 51.1086 176.91C51.1005 176.912 51.0796 176.919 51.0712 176.922C51.0696 176.923 51.0681 176.923 51.0665 176.924C51.0649 176.924 51.0633 176.925 51.0617 176.925C51.0602 176.926 51.0586 176.926 51.057 176.927C51.0554 176.927 51.0538 176.928 51.0522 176.929C51.0506 176.929 51.049 176.93 51.0474 176.93C51.0458 176.931 51.0442 176.931 51.0426 176.932C51.0373 176.933 51.0384 176.933 51.033 176.935C51.0157 176.941 50.8932 176.981 50.8713 176.989C50.8352 177.001 50.7363 177.034 50.6955 177.047C50.6138 177.075 50.5921 177.082 50.5056 177.111C50.4619 177.125 50.5001 177.113 50.456 177.127C50.377 177.154 50.4847 177.118 50.4055 177.144C50.3827 177.152 50.377 177.154 50.354 177.161C50.3519 177.162 50.3497 177.163 50.3475 177.163C50.3454 177.164 50.3432 177.165 50.341 177.166C50.3323 177.168 50.3367 177.167 50.328 177.17C50.3193 177.173 50.3236 177.171 50.3149 177.174C50.312 177.175 50.3047 177.178 50.3017 177.179C50.2959 177.181 50.2944 177.181 50.2885 177.183C50.2826 177.185 50.2812 177.186 50.2753 177.187C50.2575 177.193 50.2664 177.19 50.2486 177.196C50.2367 177.2 50.2336 177.201 50.2217 177.205C50.2194 177.206 50.2171 177.207 50.2149 177.208C50.2126 177.208 50.2104 177.209 50.2081 177.21C50.2058 177.211 50.2036 177.211 50.2013 177.212C50.1991 177.213 50.1968 177.214 50.1945 177.214C50.1459 177.231 50.1335 177.235 50.0838 177.251L50.7162 179.149ZM52.6472 178.494C53.233 178.202 53.9383 177.776 54.7547 177.232L53.6453 175.568C52.8617 176.09 52.2336 176.465 51.7528 176.706L52.6472 178.494ZM53.2 176.4V176.6H55.2V176.4H53.2ZM54.6299 177.503C60.1003 174.898 65.7538 173.6 71.6 173.6V171.6C65.4462 171.6 59.4997 172.969 53.7701 175.697L54.6299 177.503ZM71.6 173.6C79.4893 173.6 88.039 176.446 97.2678 182.247L98.3322 180.553C88.8943 174.621 79.9774 171.6 71.6 171.6V173.6ZM98.5954 182.006L114.595 161.006L113.005 159.794L97.0046 180.794L98.5954 182.006ZM114.507 159.693L110.107 155.293L108.693 156.707L113.093 161.107L114.507 159.693ZM108.6 155.4L106.2 158.6L107.8 159.8L110.2 156.6L108.6 155.4ZM107.568 158.377C103.632 155.663 99.6151 153.618 95.5162 152.251L94.8838 154.149C98.7849 155.449 102.634 157.404 106.432 160.023L107.568 158.377ZM95.5443 152.261C91.4304 150.753 87.1135 150 82.6 150V152C86.8865 152 90.9696 152.714 94.8557 154.139L95.5443 152.261ZM82.6 150H81.4V152H82.6V150ZM80.9528 150.106L80.5528 150.306L81.4472 152.094L81.8472 151.894L80.9528 150.106ZM81 150.2H80.8V152.2H81V150.2ZM81.8 151.2V132H79.8V151.2H81.8ZM81.3547 132.832C84.3025 130.867 89.1885 129.8 96.2 129.8V127.8C89.0782 127.8 83.6975 128.866 80.2453 131.168L81.3547 132.832ZM96.2 129.8C101.356 129.8 107.353 131.22 114.21 134.121L114.99 132.279C107.98 129.313 101.71 127.8 96.2 127.8V129.8ZM113.69 133.614C113.691 133.617 113.692 133.62 113.694 133.622C113.695 133.625 113.696 133.628 113.697 133.631C113.699 133.634 113.7 133.637 113.701 133.64C113.703 133.642 113.704 133.645 113.705 133.648C113.707 133.651 113.708 133.654 113.709 133.657C113.71 133.66 113.712 133.662 113.713 133.665C113.714 133.668 113.716 133.671 113.717 133.674C113.718 133.677 113.72 133.68 113.721 133.683C113.722 133.685 113.723 133.688 113.725 133.691C113.726 133.694 113.727 133.697 113.729 133.7C113.73 133.703 113.731 133.705 113.733 133.708C113.734 133.711 113.735 133.714 113.737 133.717C113.738 133.72 113.739 133.723 113.74 133.726C113.742 133.728 113.743 133.731 113.744 133.734C113.746 133.737 113.747 133.74 113.748 133.743C113.75 133.746 113.751 133.748 113.752 133.751C113.753 133.754 113.755 133.757 113.756 133.76C113.757 133.763 113.759 133.766 113.76 133.768C113.761 133.771 113.763 133.774 113.764 133.777C113.765 133.78 113.766 133.783 113.768 133.786C113.769 133.789 113.77 133.791 113.772 133.794C113.773 133.797 113.774 133.8 113.776 133.803C113.777 133.806 113.778 133.809 113.779 133.811C113.781 133.814 113.782 133.817 113.783 133.82C113.785 133.823 113.786 133.826 113.787 133.829C113.789 133.832 113.79 133.834 113.791 133.837C113.793 133.84 113.794 133.843 113.795 133.846C113.796 133.849 113.798 133.852 113.799 133.854C113.8 133.857 113.802 133.86 113.803 133.863C113.804 133.866 113.806 133.869 113.807 133.872C113.808 133.874 113.809 133.877 113.811 133.88C113.812 133.883 113.813 133.886 113.815 133.889C113.816 133.892 113.817 133.895 113.819 133.897C113.82 133.9 113.821 133.903 113.822 133.906C113.824 133.909 113.825 133.912 113.826 133.915C113.828 133.917 113.829 133.92 113.83 133.923C113.832 133.926 113.833 133.929 113.834 133.932C113.835 133.935 113.837 133.937 113.838 133.94C113.839 133.943 113.841 133.946 113.842 133.949C113.843 133.952 113.845 133.955 113.846 133.958C113.847 133.96 113.848 133.963 113.85 133.966C113.851 133.969 113.852 133.972 113.854 133.975C113.855 133.978 113.856 133.98 113.858 133.983C113.859 133.986 113.86 133.989 113.862 133.992C113.863 133.995 113.864 133.998 113.865 134.001C113.867 134.003 113.868 134.006 113.869 134.009C113.871 134.012 113.872 134.015 113.873 134.018C113.875 134.021 113.876 134.023 113.877 134.026C113.878 134.029 113.88 134.032 113.881 134.035C113.882 134.038 113.884 134.041 113.885 134.043C113.886 134.046 113.888 134.049 113.889 134.052C113.89 134.055 113.891 134.058 113.893 134.061C113.894 134.064 113.895 134.066 113.897 134.069C113.898 134.072 113.899 134.075 113.901 134.078C113.902 134.081 113.903 134.084 113.904 134.086C113.906 134.089 113.907 134.092 113.908 134.095C113.91 134.098 113.911 134.101 113.912 134.104C113.914 134.107 113.915 134.109 113.916 134.112C113.918 134.115 113.919 134.118 113.92 134.121C113.921 134.124 113.923 134.127 113.924 134.129C113.925 134.132 113.927 134.135 113.928 134.138C113.929 134.141 113.931 134.144 113.932 134.147C113.933 134.149 113.934 134.152 113.936 134.155C113.937 134.158 113.938 134.161 113.94 134.164C113.941 134.167 113.942 134.17 113.944 134.172C113.945 134.175 113.946 134.178 113.947 134.181C113.949 134.184 113.95 134.187 113.951 134.19C113.953 134.192 113.954 134.195 113.955 134.198C113.957 134.201 113.958 134.204 113.959 134.207C113.96 134.21 113.962 134.212 113.963 134.215C113.964 134.218 113.966 134.221 113.967 134.224C113.968 134.227 113.97 134.23 113.971 134.233C113.972 134.235 113.973 134.238 113.975 134.241C113.976 134.244 113.977 134.247 113.979 134.25C113.98 134.253 113.981 134.255 113.983 134.258C113.984 134.261 113.985 134.264 113.987 134.267C113.988 134.27 113.989 134.273 113.99 134.276C113.992 134.278 113.993 134.281 113.994 134.284C113.996 134.287 113.997 134.29 113.998 134.293C114 134.296 114.001 134.298 114.002 134.301C114.003 134.304 114.005 134.307 114.006 134.31C114.007 134.313 114.009 134.316 114.01 134.318C114.011 134.321 114.013 134.324 114.014 134.327C114.015 134.33 114.016 134.333 114.018 134.336C114.019 134.339 114.02 134.341 114.022 134.344C114.023 134.347 114.024 134.35 114.026 134.353C114.027 134.356 114.028 134.359 114.029 134.361C114.031 134.364 114.032 134.367 114.033 134.37C114.035 134.373 114.036 134.376 114.037 134.379C114.039 134.382 114.04 134.384 114.041 134.387C114.043 134.39 114.044 134.393 114.045 134.396C114.046 134.399 114.048 134.402 114.049 134.404C114.05 134.407 114.052 134.41 114.053 134.413C114.054 134.416 114.056 134.419 114.057 134.422C114.058 134.424 114.059 134.427 114.061 134.43C114.062 134.433 114.063 134.436 114.065 134.439C114.066 134.442 114.067 134.445 114.069 134.447C114.07 134.45 114.071 134.453 114.072 134.456C114.074 134.459 114.075 134.462 114.076 134.465C114.078 134.467 114.079 134.47 114.08 134.473C114.082 134.476 114.083 134.479 114.084 134.482C114.085 134.485 114.087 134.487 114.088 134.49C114.089 134.493 114.091 134.496 114.092 134.499C114.093 134.502 114.095 134.505 114.096 134.508C114.097 134.51 114.098 134.513 114.1 134.516C114.101 134.519 114.102 134.522 114.104 134.525C114.105 134.528 114.106 134.53 114.108 134.533C114.109 134.536 114.11 134.539 114.112 134.542C114.113 134.545 114.114 134.548 114.115 134.551C114.117 134.553 114.118 134.556 114.119 134.559C114.121 134.562 114.122 134.565 114.123 134.568C114.125 134.571 114.126 134.573 114.127 134.576C114.128 134.579 114.13 134.582 114.131 134.585C114.132 134.588 114.134 134.591 114.135 134.593C114.136 134.596 114.138 134.599 114.139 134.602C114.14 134.605 114.141 134.608 114.143 134.611C114.144 134.614 114.145 134.616 114.147 134.619C114.148 134.622 114.149 134.625 114.151 134.628C114.152 134.631 114.153 134.634 114.154 134.636C114.156 134.639 114.157 134.642 114.158 134.645C114.16 134.648 114.161 134.651 114.162 134.654C114.164 134.657 114.165 134.659 114.166 134.662C114.168 134.665 114.169 134.668 114.17 134.671C114.171 134.674 114.173 134.677 114.174 134.679C114.175 134.682 114.177 134.685 114.178 134.688C114.179 134.691 114.181 134.694 114.182 134.697C114.183 134.699 114.184 134.702 114.186 134.705C114.187 134.708 114.188 134.711 114.19 134.714C114.191 134.717 114.192 134.72 114.194 134.722C114.195 134.725 114.196 134.728 114.197 134.731C114.199 134.734 114.2 134.737 114.201 134.74C114.203 134.742 114.204 134.745 114.205 134.748C114.207 134.751 114.208 134.754 114.209 134.757C114.21 134.76 114.212 134.762 114.213 134.765C114.214 134.768 114.216 134.771 114.217 134.774C114.218 134.777 114.22 134.78 114.221 134.783C114.222 134.785 114.223 134.788 114.225 134.791C114.226 134.794 114.227 134.797 114.229 134.8C114.23 134.803 114.231 134.805 114.233 134.808C114.234 134.811 114.235 134.814 114.237 134.817C114.238 134.82 114.239 134.823 114.24 134.826C114.242 134.828 114.243 134.831 114.244 134.834C114.246 134.837 114.247 134.84 114.248 134.843C114.25 134.846 114.251 134.848 114.252 134.851C114.253 134.854 114.255 134.857 114.256 134.86C114.257 134.863 114.259 134.866 114.26 134.868C114.261 134.871 114.263 134.874 114.264 134.877C114.265 134.88 114.266 134.883 114.268 134.886C114.269 134.889 114.27 134.891 114.272 134.894C114.273 134.897 114.274 134.9 114.276 134.903C114.277 134.906 114.278 134.909 114.279 134.911C114.281 134.914 114.282 134.917 114.283 134.92C114.285 134.923 114.286 134.926 114.287 134.929C114.289 134.932 114.29 134.934 114.291 134.937C114.293 134.94 114.294 134.943 114.295 134.946C114.296 134.949 114.298 134.952 114.299 134.954C114.3 134.957 114.302 134.96 114.303 134.963C114.304 134.966 114.306 134.969 114.307 134.972C114.308 134.974 114.309 134.977 114.311 134.98C114.312 134.983 114.313 134.986 114.315 134.989C114.316 134.992 114.317 134.995 114.319 134.997C114.32 135 114.321 135.003 114.322 135.006C114.324 135.009 114.325 135.012 114.326 135.015C114.328 135.017 114.329 135.02 114.33 135.023C114.332 135.026 114.333 135.029 114.334 135.032C114.335 135.035 114.337 135.037 114.338 135.04C114.339 135.043 114.341 135.046 114.342 135.049C114.343 135.052 114.345 135.055 114.346 135.058C114.347 135.06 114.348 135.063 114.35 135.066C114.351 135.069 114.352 135.072 114.354 135.075C114.355 135.078 114.356 135.08 114.358 135.083C114.359 135.086 114.36 135.089 114.362 135.092C114.363 135.095 114.364 135.098 114.365 135.101C114.367 135.103 114.368 135.106 114.369 135.109C114.371 135.112 114.372 135.115 114.373 135.118C114.375 135.121 114.376 135.123 114.377 135.126C114.378 135.129 114.38 135.132 114.381 135.135C114.382 135.138 114.384 135.141 114.385 135.143C114.386 135.146 114.388 135.149 114.389 135.152C114.39 135.155 114.391 135.158 114.393 135.161C114.394 135.164 114.395 135.166 114.397 135.169C114.398 135.172 114.399 135.175 114.401 135.178C114.402 135.181 114.403 135.184 114.404 135.186C114.406 135.189 114.407 135.192 114.408 135.195C114.41 135.198 114.411 135.201 114.412 135.204C114.414 135.207 114.415 135.209 114.416 135.212C114.418 135.215 114.419 135.218 114.42 135.221C114.421 135.224 114.423 135.227 114.424 135.229C114.425 135.232 114.427 135.235 114.428 135.238C114.429 135.241 114.431 135.244 114.432 135.247C114.433 135.249 114.434 135.252 114.436 135.255C114.437 135.258 114.438 135.261 114.44 135.264C114.441 135.267 114.442 135.27 114.444 135.272C114.445 135.275 114.446 135.278 114.447 135.281C114.449 135.284 114.45 135.287 114.451 135.29C114.453 135.292 114.454 135.295 114.455 135.298C114.457 135.301 114.458 135.304 114.459 135.307C114.46 135.31 114.462 135.312 114.463 135.315C114.464 135.318 114.466 135.321 114.467 135.324C114.468 135.327 114.47 135.33 114.471 135.333C114.472 135.335 114.473 135.338 114.475 135.341C114.476 135.344 114.477 135.347 114.479 135.35C114.48 135.353 114.481 135.355 114.483 135.358C114.484 135.361 114.485 135.364 114.487 135.367C114.488 135.37 114.489 135.373 114.49 135.376C114.492 135.378 114.493 135.381 114.494 135.384C114.496 135.387 114.497 135.39 114.498 135.393C114.5 135.396 114.501 135.398 114.502 135.401C114.503 135.404 114.505 135.407 114.506 135.41C114.507 135.413 114.509 135.416 114.51 135.418C114.511 135.421 114.513 135.424 114.514 135.427C114.515 135.43 114.516 135.433 114.518 135.436C114.519 135.439 114.52 135.441 114.522 135.444C114.523 135.447 114.524 135.45 114.526 135.453C114.527 135.456 114.528 135.459 114.529 135.461C114.531 135.464 114.532 135.467 114.533 135.47C114.535 135.473 114.536 135.476 114.537 135.479C114.539 135.482 114.54 135.484 114.541 135.487C114.543 135.49 114.544 135.493 114.545 135.496C114.546 135.499 114.548 135.502 114.549 135.504C114.55 135.507 114.552 135.51 114.553 135.513C114.554 135.516 114.556 135.519 114.557 135.522C114.558 135.524 114.559 135.527 114.561 135.53C114.562 135.533 114.563 135.536 114.565 135.539C114.566 135.542 114.567 135.545 114.569 135.547C114.57 135.55 114.571 135.553 114.572 135.556C114.574 135.559 114.575 135.562 114.576 135.565C114.578 135.567 114.579 135.57 114.58 135.573C114.582 135.576 114.583 135.579 114.584 135.582C114.585 135.585 114.587 135.587 114.588 135.59C114.589 135.593 114.591 135.596 114.592 135.599C114.593 135.602 114.595 135.605 114.596 135.608C114.597 135.61 114.598 135.613 114.6 135.616C114.601 135.619 114.602 135.622 114.604 135.625C114.605 135.628 114.606 135.63 114.608 135.633C114.609 135.636 114.61 135.639 114.612 135.642C114.613 135.645 114.614 135.648 114.615 135.651C114.617 135.653 114.618 135.656 114.619 135.659C114.621 135.662 114.622 135.665 114.623 135.668C114.625 135.671 114.626 135.673 114.627 135.676C114.628 135.679 114.63 135.682 114.631 135.685C114.632 135.688 114.634 135.691 114.635 135.693C114.636 135.696 114.638 135.699 114.639 135.702C114.64 135.705 114.641 135.708 114.643 135.711C114.644 135.714 114.645 135.716 114.647 135.719C114.648 135.722 114.649 135.725 114.651 135.728C114.652 135.731 114.653 135.734 114.654 135.736C114.656 135.739 114.657 135.742 114.658 135.745C114.66 135.748 114.661 135.751 114.662 135.754C114.664 135.757 114.665 135.759 114.666 135.762C114.668 135.765 114.669 135.768 114.67 135.771C114.671 135.774 114.673 135.777 114.674 135.779C114.675 135.782 114.677 135.785 114.678 135.788C114.679 135.791 114.681 135.794 114.682 135.797C114.683 135.799 114.684 135.802 114.686 135.805C114.687 135.808 114.688 135.811 114.69 135.814C114.691 135.817 114.692 135.82 114.694 135.822C114.695 135.825 114.696 135.828 114.697 135.831C114.699 135.834 114.7 135.837 114.701 135.84C114.703 135.842 114.704 135.845 114.705 135.848C114.707 135.851 114.708 135.854 114.709 135.857C114.71 135.86 114.712 135.862 114.713 135.865C114.714 135.868 114.716 135.871 114.717 135.874C114.718 135.877 114.72 135.88 114.721 135.883C114.722 135.885 114.723 135.888 114.725 135.891C114.726 135.894 114.727 135.897 114.729 135.9C114.73 135.903 114.731 135.905 114.733 135.908C114.734 135.911 114.735 135.914 114.737 135.917C114.738 135.92 114.739 135.923 114.74 135.926C114.742 135.928 114.743 135.931 114.744 135.934C114.746 135.937 114.747 135.94 114.748 135.943C114.75 135.946 114.751 135.948 114.752 135.951C114.753 135.954 114.755 135.957 114.756 135.96C114.757 135.963 114.759 135.966 114.76 135.968C114.761 135.971 114.763 135.974 114.764 135.977C114.765 135.98 114.766 135.983 114.768 135.986C114.769 135.989 114.77 135.991 114.772 135.994C114.773 135.997 114.774 136 114.776 136.003C114.777 136.006 114.778 136.009 114.779 136.011C114.781 136.014 114.782 136.017 114.783 136.02C114.785 136.023 114.786 136.026 114.787 136.029C114.789 136.032 114.79 136.034 114.791 136.037C114.793 136.04 114.794 136.043 114.795 136.046C114.796 136.049 114.798 136.052 114.799 136.054C114.8 136.057 114.802 136.06 114.803 136.063C114.804 136.066 114.806 136.069 114.807 136.072C114.808 136.074 114.809 136.077 114.811 136.08C114.812 136.083 114.813 136.086 114.815 136.089C114.816 136.092 114.817 136.095 114.819 136.097C114.82 136.1 114.821 136.103 114.822 136.106C114.824 136.109 114.825 136.112 114.826 136.115C114.828 136.117 114.829 136.12 114.83 136.123C114.832 136.126 114.833 136.129 114.834 136.132C114.835 136.135 114.837 136.137 114.838 136.14C114.839 136.143 114.841 136.146 114.842 136.149C114.843 136.152 114.845 136.155 114.846 136.158C114.847 136.16 114.848 136.163 114.85 136.166C114.851 136.169 114.852 136.172 114.854 136.175C114.855 136.178 114.856 136.18 114.858 136.183C114.859 136.186 114.86 136.189 114.862 136.192C114.863 136.195 114.864 136.198 114.865 136.201C114.867 136.203 114.868 136.206 114.869 136.209C114.871 136.212 114.872 136.215 114.873 136.218C114.875 136.221 114.876 136.223 114.877 136.226C114.878 136.229 114.88 136.232 114.881 136.235C114.882 136.238 114.884 136.241 114.885 136.243C114.886 136.246 114.888 136.249 114.889 136.252C114.89 136.255 114.891 136.258 114.893 136.261C114.894 136.264 114.895 136.266 114.897 136.269C114.898 136.272 114.899 136.275 114.901 136.278C114.902 136.281 114.903 136.284 114.904 136.286C114.906 136.289 114.907 136.292 114.908 136.295C114.91 136.298 114.911 136.301 114.912 136.304C114.914 136.307 114.915 136.309 114.916 136.312C114.918 136.315 114.919 136.318 114.92 136.321C114.921 136.324 114.923 136.327 114.924 136.329C114.925 136.332 114.927 136.335 114.928 136.338C114.929 136.341 114.931 136.344 114.932 136.347C114.933 136.349 114.934 136.352 114.936 136.355C114.937 136.358 114.938 136.361 114.94 136.364C114.941 136.367 114.942 136.37 114.944 136.372C114.945 136.375 114.946 136.378 114.947 136.381C114.949 136.384 114.95 136.387 114.951 136.39C114.953 136.392 114.954 136.395 114.955 136.398C114.957 136.401 114.958 136.404 114.959 136.407C114.96 136.41 114.962 136.412 114.963 136.415C114.964 136.418 114.966 136.421 114.967 136.424C114.968 136.427 114.97 136.43 114.971 136.433C114.972 136.435 114.973 136.438 114.975 136.441C114.976 136.444 114.977 136.447 114.979 136.45C114.98 136.453 114.981 136.455 114.983 136.458C114.984 136.461 114.985 136.464 114.987 136.467C114.988 136.47 114.989 136.473 114.99 136.476C114.992 136.478 114.993 136.481 114.994 136.484C114.996 136.487 114.997 136.49 114.998 136.493C115 136.496 115.001 136.498 115.002 136.501C115.003 136.504 115.005 136.507 115.006 136.51C115.007 136.513 115.009 136.516 115.01 136.518C115.011 136.521 115.013 136.524 115.014 136.527C115.015 136.53 115.016 136.533 115.018 136.536C115.019 136.539 115.02 136.541 115.022 136.544C115.023 136.547 115.024 136.55 115.026 136.553C115.027 136.556 115.028 136.559 115.029 136.561C115.031 136.564 115.032 136.567 115.033 136.57C115.035 136.573 115.036 136.576 115.037 136.579C115.039 136.582 115.04 136.584 115.041 136.587C115.043 136.59 115.044 136.593 115.045 136.596C115.046 136.599 115.048 136.602 115.049 136.604C115.05 136.607 115.052 136.61 115.053 136.613C115.054 136.616 115.056 136.619 115.057 136.622C115.058 136.624 115.059 136.627 115.061 136.63C115.062 136.633 115.063 136.636 115.065 136.639C115.066 136.642 115.067 136.645 115.069 136.647C115.07 136.65 115.071 136.653 115.072 136.656C115.074 136.659 115.075 136.662 115.076 136.665C115.078 136.667 115.079 136.67 115.08 136.673C115.082 136.676 115.083 136.679 115.084 136.682C115.085 136.685 115.087 136.687 115.088 136.69C115.089 136.693 115.091 136.696 115.092 136.699C115.093 136.702 115.095 136.705 115.096 136.708C115.097 136.71 115.098 136.713 115.1 136.716C115.101 136.719 115.102 136.722 115.104 136.725C115.105 136.728 115.106 136.73 115.108 136.733C115.109 136.736 115.11 136.739 115.112 136.742C115.113 136.745 115.114 136.748 115.115 136.751C115.117 136.753 115.118 136.756 115.119 136.759C115.121 136.762 115.122 136.765 115.123 136.768C115.125 136.771 115.126 136.773 115.127 136.776C115.128 136.779 115.13 136.782 115.131 136.785C115.132 136.788 115.134 136.791 115.135 136.793C115.136 136.796 115.138 136.799 115.139 136.802C115.14 136.805 115.141 136.808 115.143 136.811C115.144 136.814 115.145 136.816 115.147 136.819C115.148 136.822 115.149 136.825 115.151 136.828C115.152 136.831 115.153 136.834 115.154 136.836C115.156 136.839 115.157 136.842 115.158 136.845C115.16 136.848 115.161 136.851 115.162 136.854C115.164 136.857 115.165 136.859 115.166 136.862C115.168 136.865 115.169 136.868 115.17 136.871C115.171 136.874 115.173 136.877 115.174 136.879C115.175 136.882 115.177 136.885 115.178 136.888C115.179 136.891 115.181 136.894 115.182 136.897C115.183 136.899 115.184 136.902 115.186 136.905C115.187 136.908 115.188 136.911 115.19 136.914C115.191 136.917 115.192 136.92 115.194 136.922C115.195 136.925 115.196 136.928 115.197 136.931C115.199 136.934 115.2 136.937 115.201 136.94C115.203 136.942 115.204 136.945 115.205 136.948C115.207 136.951 115.208 136.954 115.209 136.957C115.21 136.96 115.212 136.962 115.213 136.965C115.214 136.968 115.216 136.971 115.217 136.974C115.218 136.977 115.22 136.98 115.221 136.983C115.222 136.985 115.223 136.988 115.225 136.991C115.226 136.994 115.227 136.997 115.229 137C115.23 137.003 115.231 137.005 115.233 137.008C115.234 137.011 115.235 137.014 115.237 137.017C115.238 137.02 115.239 137.023 115.24 137.026C115.242 137.028 115.243 137.031 115.244 137.034C115.246 137.037 115.247 137.04 115.248 137.043C115.25 137.046 115.251 137.048 115.252 137.051C115.253 137.054 115.255 137.057 115.256 137.06C115.257 137.063 115.259 137.066 115.26 137.068C115.261 137.071 115.263 137.074 115.264 137.077C115.265 137.08 115.266 137.083 115.268 137.086C115.269 137.089 115.27 137.091 115.272 137.094C115.273 137.097 115.274 137.1 115.276 137.103C115.277 137.106 115.278 137.109 115.279 137.111C115.281 137.114 115.282 137.117 115.283 137.12C115.285 137.123 115.286 137.126 115.287 137.129C115.289 137.132 115.29 137.134 115.291 137.137C115.293 137.14 115.294 137.143 115.295 137.146C115.296 137.149 115.298 137.152 115.299 137.154C115.3 137.157 115.302 137.16 115.303 137.163C115.304 137.166 115.306 137.169 115.307 137.172C115.308 137.174 115.309 137.177 115.311 137.18C115.312 137.183 115.313 137.186 115.315 137.189C115.316 137.192 115.317 137.195 115.319 137.197C115.32 137.2 115.321 137.203 115.322 137.206C115.324 137.209 115.325 137.212 115.326 137.215C115.328 137.217 115.329 137.22 115.33 137.223C115.332 137.226 115.333 137.229 115.334 137.232C115.335 137.235 115.337 137.237 115.338 137.24C115.339 137.243 115.341 137.246 115.342 137.249C115.343 137.252 115.345 137.255 115.346 137.258C115.347 137.26 115.348 137.263 115.35 137.266C115.351 137.269 115.352 137.272 115.354 137.275C115.355 137.278 115.356 137.28 115.358 137.283C115.359 137.286 115.36 137.289 115.362 137.292C115.363 137.295 115.364 137.298 115.365 137.301C115.367 137.303 115.368 137.306 115.369 137.309C115.371 137.312 115.372 137.315 115.373 137.318C115.375 137.321 115.376 137.323 115.377 137.326C115.378 137.329 115.38 137.332 115.381 137.335C115.382 137.338 115.384 137.341 115.385 137.343C115.386 137.346 115.388 137.349 115.389 137.352C115.39 137.355 115.391 137.358 115.393 137.361C115.394 137.364 115.395 137.366 115.397 137.369C115.398 137.372 115.399 137.375 115.401 137.378C115.402 137.381 115.403 137.384 115.404 137.386C115.406 137.389 115.407 137.392 115.408 137.395C115.41 137.398 115.411 137.401 115.412 137.404C115.414 137.407 115.415 137.409 115.416 137.412C115.418 137.415 115.419 137.418 115.42 137.421C115.421 137.424 115.423 137.427 115.424 137.429C115.425 137.432 115.427 137.435 115.428 137.438C115.429 137.441 115.431 137.444 115.432 137.447C115.433 137.449 115.434 137.452 115.436 137.455C115.437 137.458 115.438 137.461 115.44 137.464C115.441 137.467 115.442 137.47 115.444 137.472C115.445 137.475 115.446 137.478 115.447 137.481C115.449 137.484 115.45 137.487 115.451 137.49C115.453 137.492 115.454 137.495 115.455 137.498C115.457 137.501 115.458 137.504 115.459 137.507C115.46 137.51 115.462 137.512 115.463 137.515C115.464 137.518 115.466 137.521 115.467 137.524C115.468 137.527 115.47 137.53 115.471 137.533C115.472 137.535 115.473 137.538 115.475 137.541C115.476 137.544 115.477 137.547 115.479 137.55C115.48 137.553 115.481 137.555 115.483 137.558C115.484 137.561 115.485 137.564 115.487 137.567C115.488 137.57 115.489 137.573 115.49 137.576C115.492 137.578 115.493 137.581 115.494 137.584C115.496 137.587 115.497 137.59 115.498 137.593C115.5 137.596 115.501 137.598 115.502 137.601C115.503 137.604 115.505 137.607 115.506 137.61C115.507 137.613 115.509 137.616 115.51 137.618C115.511 137.621 115.513 137.624 115.514 137.627C115.515 137.63 115.516 137.633 115.518 137.636C115.519 137.639 115.52 137.641 115.522 137.644C115.523 137.647 115.524 137.65 115.526 137.653C115.527 137.656 115.528 137.659 115.529 137.661C115.531 137.664 115.532 137.667 115.533 137.67C115.535 137.673 115.536 137.676 115.537 137.679C115.539 137.682 115.54 137.684 115.541 137.687C115.543 137.69 115.544 137.693 115.545 137.696C115.546 137.699 115.548 137.702 115.549 137.704C115.55 137.707 115.552 137.71 115.553 137.713C115.554 137.716 115.556 137.719 115.557 137.722C115.558 137.724 115.559 137.727 115.561 137.73C115.562 137.733 115.563 137.736 115.565 137.739C115.566 137.742 115.567 137.745 115.569 137.747C115.57 137.75 115.571 137.753 115.572 137.756C115.574 137.759 115.575 137.762 115.576 137.765C115.578 137.767 115.579 137.77 115.58 137.773C115.582 137.776 115.583 137.779 115.584 137.782C115.585 137.785 115.587 137.787 115.588 137.79C115.589 137.793 115.591 137.796 115.592 137.799C115.593 137.802 115.595 137.805 115.596 137.808C115.597 137.81 115.598 137.813 115.6 137.816C115.601 137.819 115.602 137.822 115.604 137.825C115.605 137.828 115.606 137.83 115.608 137.833C115.609 137.836 115.61 137.839 115.612 137.842C115.613 137.845 115.614 137.848 115.615 137.851C115.617 137.853 115.618 137.856 115.619 137.859C115.621 137.862 115.622 137.865 115.623 137.868C115.625 137.871 115.626 137.873 115.627 137.876C115.628 137.879 115.63 137.882 115.631 137.885C115.632 137.888 115.634 137.891 115.635 137.893C115.636 137.896 115.638 137.899 115.639 137.902C115.64 137.905 115.641 137.908 115.643 137.911C115.644 137.914 115.645 137.916 115.647 137.919C115.648 137.922 115.649 137.925 115.651 137.928C115.652 137.931 115.653 137.934 115.654 137.936C115.656 137.939 115.657 137.942 115.658 137.945C115.66 137.948 115.661 137.951 115.662 137.954C115.664 137.957 115.665 137.959 115.666 137.962C115.667 137.965 115.669 137.968 115.67 137.971C115.671 137.974 115.673 137.977 115.674 137.979C115.675 137.982 115.677 137.985 115.678 137.988C115.679 137.991 115.681 137.994 115.682 137.997C115.683 137.999 115.684 138.002 115.686 138.005C115.687 138.008 115.688 138.011 115.69 138.014L117.51 137.186C117.509 137.183 117.508 137.18 117.506 137.178C117.505 137.175 117.504 137.172 117.503 137.169C117.501 137.166 117.5 137.163 117.499 137.16C117.497 137.158 117.496 137.155 117.495 137.152C117.493 137.149 117.492 137.146 117.491 137.143C117.49 137.14 117.488 137.137 117.487 137.135C117.486 137.132 117.484 137.129 117.483 137.126C117.482 137.123 117.48 137.12 117.479 137.117C117.478 137.115 117.477 137.112 117.475 137.109C117.474 137.106 117.473 137.103 117.471 137.1C117.47 137.097 117.469 137.095 117.467 137.092C117.466 137.089 117.465 137.086 117.463 137.083C117.462 137.08 117.461 137.077 117.46 137.074C117.458 137.072 117.457 137.069 117.456 137.066C117.454 137.063 117.453 137.06 117.452 137.057C117.45 137.054 117.449 137.052 117.448 137.049C117.447 137.046 117.445 137.043 117.444 137.04C117.443 137.037 117.441 137.034 117.44 137.032C117.439 137.029 117.437 137.026 117.436 137.023C117.435 137.02 117.434 137.017 117.432 137.014C117.431 137.011 117.43 137.009 117.428 137.006C117.427 137.003 117.426 137 117.424 136.997C117.423 136.994 117.422 136.991 117.421 136.989C117.419 136.986 117.418 136.983 117.417 136.98C117.415 136.977 117.414 136.974 117.413 136.971C117.411 136.968 117.41 136.966 117.409 136.963C117.408 136.96 117.406 136.957 117.405 136.954C117.404 136.951 117.402 136.948 117.401 136.946C117.4 136.943 117.398 136.94 117.397 136.937C117.396 136.934 117.394 136.931 117.393 136.928C117.392 136.926 117.391 136.923 117.389 136.92C117.388 136.917 117.387 136.914 117.385 136.911C117.384 136.908 117.383 136.905 117.381 136.903C117.38 136.9 117.379 136.897 117.378 136.894C117.376 136.891 117.375 136.888 117.374 136.885C117.372 136.883 117.371 136.88 117.37 136.877C117.368 136.874 117.367 136.871 117.366 136.868C117.365 136.865 117.363 136.862 117.362 136.86C117.361 136.857 117.359 136.854 117.358 136.851C117.357 136.848 117.355 136.845 117.354 136.842C117.353 136.84 117.352 136.837 117.35 136.834C117.349 136.831 117.348 136.828 117.346 136.825C117.345 136.822 117.344 136.82 117.342 136.817C117.341 136.814 117.34 136.811 117.338 136.808C117.337 136.805 117.336 136.802 117.335 136.799C117.333 136.797 117.332 136.794 117.331 136.791C117.329 136.788 117.328 136.785 117.327 136.782C117.325 136.779 117.324 136.777 117.323 136.774C117.322 136.771 117.32 136.768 117.319 136.765C117.318 136.762 117.316 136.759 117.315 136.757C117.314 136.754 117.312 136.751 117.311 136.748C117.31 136.745 117.309 136.742 117.307 136.739C117.306 136.736 117.305 136.734 117.303 136.731C117.302 136.728 117.301 136.725 117.299 136.722C117.298 136.719 117.297 136.716 117.296 136.714C117.294 136.711 117.293 136.708 117.292 136.705C117.29 136.702 117.289 136.699 117.288 136.696C117.286 136.693 117.285 136.691 117.284 136.688C117.283 136.685 117.281 136.682 117.28 136.679C117.279 136.676 117.277 136.673 117.276 136.671C117.275 136.668 117.273 136.665 117.272 136.662C117.271 136.659 117.269 136.656 117.268 136.653C117.267 136.651 117.266 136.648 117.264 136.645C117.263 136.642 117.262 136.639 117.26 136.636C117.259 136.633 117.258 136.63 117.256 136.628C117.255 136.625 117.254 136.622 117.253 136.619C117.251 136.616 117.25 136.613 117.249 136.61C117.247 136.608 117.246 136.605 117.245 136.602C117.243 136.599 117.242 136.596 117.241 136.593C117.24 136.59 117.238 136.587 117.237 136.585C117.236 136.582 117.234 136.579 117.233 136.576C117.232 136.573 117.23 136.57 117.229 136.567C117.228 136.565 117.227 136.562 117.225 136.559C117.224 136.556 117.223 136.553 117.221 136.55C117.22 136.547 117.219 136.545 117.217 136.542C117.216 136.539 117.215 136.536 117.213 136.533C117.212 136.53 117.211 136.527 117.21 136.524C117.208 136.522 117.207 136.519 117.206 136.516C117.204 136.513 117.203 136.51 117.202 136.507C117.2 136.504 117.199 136.502 117.198 136.499C117.197 136.496 117.195 136.493 117.194 136.49C117.193 136.487 117.191 136.484 117.19 136.482C117.189 136.479 117.187 136.476 117.186 136.473C117.185 136.47 117.184 136.467 117.182 136.464C117.181 136.461 117.18 136.459 117.178 136.456C117.177 136.453 117.176 136.45 117.174 136.447C117.173 136.444 117.172 136.441 117.171 136.439C117.169 136.436 117.168 136.433 117.167 136.43C117.165 136.427 117.164 136.424 117.163 136.421C117.161 136.418 117.16 136.416 117.159 136.413C117.158 136.41 117.156 136.407 117.155 136.404C117.154 136.401 117.152 136.398 117.151 136.396C117.15 136.393 117.148 136.39 117.147 136.387C117.146 136.384 117.144 136.381 117.143 136.378C117.142 136.376 117.141 136.373 117.139 136.37C117.138 136.367 117.137 136.364 117.135 136.361C117.134 136.358 117.133 136.355 117.131 136.353C117.13 136.35 117.129 136.347 117.128 136.344C117.126 136.341 117.125 136.338 117.124 136.335C117.122 136.333 117.121 136.33 117.12 136.327C117.118 136.324 117.117 136.321 117.116 136.318C117.115 136.315 117.113 136.312 117.112 136.31C117.111 136.307 117.109 136.304 117.108 136.301C117.107 136.298 117.105 136.295 117.104 136.292C117.103 136.29 117.102 136.287 117.1 136.284C117.099 136.281 117.098 136.278 117.096 136.275C117.095 136.272 117.094 136.27 117.092 136.267C117.091 136.264 117.09 136.261 117.088 136.258C117.087 136.255 117.086 136.252 117.085 136.249C117.083 136.247 117.082 136.244 117.081 136.241C117.079 136.238 117.078 136.235 117.077 136.232C117.075 136.229 117.074 136.227 117.073 136.224C117.072 136.221 117.07 136.218 117.069 136.215C117.068 136.212 117.066 136.209 117.065 136.207C117.064 136.204 117.062 136.201 117.061 136.198C117.06 136.195 117.059 136.192 117.057 136.189C117.056 136.186 117.055 136.184 117.053 136.181C117.052 136.178 117.051 136.175 117.049 136.172C117.048 136.169 117.047 136.166 117.046 136.164C117.044 136.161 117.043 136.158 117.042 136.155C117.04 136.152 117.039 136.149 117.038 136.146C117.036 136.143 117.035 136.141 117.034 136.138C117.033 136.135 117.031 136.132 117.03 136.129C117.029 136.126 117.027 136.123 117.026 136.121C117.025 136.118 117.023 136.115 117.022 136.112C117.021 136.109 117.019 136.106 117.018 136.103C117.017 136.101 117.016 136.098 117.014 136.095C117.013 136.092 117.012 136.089 117.01 136.086C117.009 136.083 117.008 136.08 117.006 136.078C117.005 136.075 117.004 136.072 117.003 136.069C117.001 136.066 117 136.063 116.999 136.06C116.997 136.058 116.996 136.055 116.995 136.052C116.993 136.049 116.992 136.046 116.991 136.043C116.99 136.04 116.988 136.037 116.987 136.035C116.986 136.032 116.984 136.029 116.983 136.026C116.982 136.023 116.98 136.02 116.979 136.017C116.978 136.015 116.977 136.012 116.975 136.009C116.974 136.006 116.973 136.003 116.971 136C116.97 135.997 116.969 135.995 116.967 135.992C116.966 135.989 116.965 135.986 116.963 135.983C116.962 135.98 116.961 135.977 116.96 135.974C116.958 135.972 116.957 135.969 116.956 135.966C116.954 135.963 116.953 135.96 116.952 135.957C116.95 135.954 116.949 135.952 116.948 135.949C116.947 135.946 116.945 135.943 116.944 135.94C116.943 135.937 116.941 135.934 116.94 135.932C116.939 135.929 116.937 135.926 116.936 135.923C116.935 135.92 116.934 135.917 116.932 135.914C116.931 135.911 116.93 135.909 116.928 135.906C116.927 135.903 116.926 135.9 116.924 135.897C116.923 135.894 116.922 135.891 116.921 135.889C116.919 135.886 116.918 135.883 116.917 135.88C116.915 135.877 116.914 135.874 116.913 135.871C116.911 135.868 116.91 135.866 116.909 135.863C116.908 135.86 116.906 135.857 116.905 135.854C116.904 135.851 116.902 135.848 116.901 135.846C116.9 135.843 116.898 135.84 116.897 135.837C116.896 135.834 116.894 135.831 116.893 135.828C116.892 135.826 116.891 135.823 116.889 135.82C116.888 135.817 116.887 135.814 116.885 135.811C116.884 135.808 116.883 135.805 116.881 135.803C116.88 135.8 116.879 135.797 116.878 135.794C116.876 135.791 116.875 135.788 116.874 135.785C116.872 135.783 116.871 135.78 116.87 135.777C116.868 135.774 116.867 135.771 116.866 135.768C116.865 135.765 116.863 135.762 116.862 135.76C116.861 135.757 116.859 135.754 116.858 135.751C116.857 135.748 116.855 135.745 116.854 135.742C116.853 135.74 116.852 135.737 116.85 135.734C116.849 135.731 116.848 135.728 116.846 135.725C116.845 135.722 116.844 135.72 116.842 135.717C116.841 135.714 116.84 135.711 116.838 135.708C116.837 135.705 116.836 135.702 116.835 135.699C116.833 135.697 116.832 135.694 116.831 135.691C116.829 135.688 116.828 135.685 116.827 135.682C116.825 135.679 116.824 135.677 116.823 135.674C116.822 135.671 116.82 135.668 116.819 135.665C116.818 135.662 116.816 135.659 116.815 135.657C116.814 135.654 116.812 135.651 116.811 135.648C116.81 135.645 116.809 135.642 116.807 135.639C116.806 135.636 116.805 135.634 116.803 135.631C116.802 135.628 116.801 135.625 116.799 135.622C116.798 135.619 116.797 135.616 116.796 135.614C116.794 135.611 116.793 135.608 116.792 135.605C116.79 135.602 116.789 135.599 116.788 135.596C116.786 135.593 116.785 135.591 116.784 135.588C116.783 135.585 116.781 135.582 116.78 135.579C116.779 135.576 116.777 135.573 116.776 135.571C116.775 135.568 116.773 135.565 116.772 135.562C116.771 135.559 116.769 135.556 116.768 135.553C116.767 135.551 116.766 135.548 116.764 135.545C116.763 135.542 116.762 135.539 116.76 135.536C116.759 135.533 116.758 135.53 116.756 135.528C116.755 135.525 116.754 135.522 116.753 135.519C116.751 135.516 116.75 135.513 116.749 135.51C116.747 135.508 116.746 135.505 116.745 135.502C116.743 135.499 116.742 135.496 116.741 135.493C116.74 135.49 116.738 135.487 116.737 135.485C116.736 135.482 116.734 135.479 116.733 135.476C116.732 135.473 116.73 135.47 116.729 135.467C116.728 135.465 116.727 135.462 116.725 135.459C116.724 135.456 116.723 135.453 116.721 135.45C116.72 135.447 116.719 135.445 116.717 135.442C116.716 135.439 116.715 135.436 116.713 135.433C116.712 135.43 116.711 135.427 116.71 135.424C116.708 135.422 116.707 135.419 116.706 135.416C116.704 135.413 116.703 135.41 116.702 135.407C116.7 135.404 116.699 135.402 116.698 135.399C116.697 135.396 116.695 135.393 116.694 135.39C116.693 135.387 116.691 135.384 116.69 135.382C116.689 135.379 116.687 135.376 116.686 135.373C116.685 135.37 116.684 135.367 116.682 135.364C116.681 135.361 116.68 135.359 116.678 135.356C116.677 135.353 116.676 135.35 116.674 135.347C116.673 135.344 116.672 135.341 116.671 135.339C116.669 135.336 116.668 135.333 116.667 135.33C116.665 135.327 116.664 135.324 116.663 135.321C116.661 135.318 116.66 135.316 116.659 135.313C116.658 135.31 116.656 135.307 116.655 135.304C116.654 135.301 116.652 135.298 116.651 135.296C116.65 135.293 116.648 135.29 116.647 135.287C116.646 135.284 116.644 135.281 116.643 135.278C116.642 135.276 116.641 135.273 116.639 135.27C116.638 135.267 116.637 135.264 116.635 135.261C116.634 135.258 116.633 135.255 116.631 135.253C116.63 135.25 116.629 135.247 116.628 135.244C116.626 135.241 116.625 135.238 116.624 135.235C116.622 135.233 116.621 135.23 116.62 135.227C116.618 135.224 116.617 135.221 116.616 135.218C116.615 135.215 116.613 135.212 116.612 135.21C116.611 135.207 116.609 135.204 116.608 135.201C116.607 135.198 116.605 135.195 116.604 135.192C116.603 135.19 116.602 135.187 116.6 135.184C116.599 135.181 116.598 135.178 116.596 135.175C116.595 135.172 116.594 135.17 116.592 135.167C116.591 135.164 116.59 135.161 116.588 135.158C116.587 135.155 116.586 135.152 116.585 135.149C116.583 135.147 116.582 135.144 116.581 135.141C116.579 135.138 116.578 135.135 116.577 135.132C116.575 135.129 116.574 135.127 116.573 135.124C116.572 135.121 116.57 135.118 116.569 135.115C116.568 135.112 116.566 135.109 116.565 135.107C116.564 135.104 116.562 135.101 116.561 135.098C116.56 135.095 116.559 135.092 116.557 135.089C116.556 135.086 116.555 135.084 116.553 135.081C116.552 135.078 116.551 135.075 116.549 135.072C116.548 135.069 116.547 135.066 116.546 135.064C116.544 135.061 116.543 135.058 116.542 135.055C116.54 135.052 116.539 135.049 116.538 135.046C116.536 135.043 116.535 135.041 116.534 135.038C116.533 135.035 116.531 135.032 116.53 135.029C116.529 135.026 116.527 135.023 116.526 135.021C116.525 135.018 116.523 135.015 116.522 135.012C116.521 135.009 116.519 135.006 116.518 135.003C116.517 135.001 116.516 134.998 116.514 134.995C116.513 134.992 116.512 134.989 116.51 134.986C116.509 134.983 116.508 134.98 116.506 134.978C116.505 134.975 116.504 134.972 116.503 134.969C116.501 134.966 116.5 134.963 116.499 134.96C116.497 134.958 116.496 134.955 116.495 134.952C116.493 134.949 116.492 134.946 116.491 134.943C116.49 134.94 116.488 134.937 116.487 134.935C116.486 134.932 116.484 134.929 116.483 134.926C116.482 134.923 116.48 134.92 116.479 134.917C116.478 134.915 116.477 134.912 116.475 134.909C116.474 134.906 116.473 134.903 116.471 134.9C116.47 134.897 116.469 134.895 116.467 134.892C116.466 134.889 116.465 134.886 116.463 134.883C116.462 134.88 116.461 134.877 116.46 134.874C116.458 134.872 116.457 134.869 116.456 134.866C116.454 134.863 116.453 134.86 116.452 134.857C116.45 134.854 116.449 134.852 116.448 134.849C116.447 134.846 116.445 134.843 116.444 134.84C116.443 134.837 116.441 134.834 116.44 134.832C116.439 134.829 116.437 134.826 116.436 134.823C116.435 134.82 116.434 134.817 116.432 134.814C116.431 134.811 116.43 134.809 116.428 134.806C116.427 134.803 116.426 134.8 116.424 134.797C116.423 134.794 116.422 134.791 116.421 134.789C116.419 134.786 116.418 134.783 116.417 134.78C116.415 134.777 116.414 134.774 116.413 134.771C116.411 134.768 116.41 134.766 116.409 134.763C116.408 134.76 116.406 134.757 116.405 134.754C116.404 134.751 116.402 134.748 116.401 134.746C116.4 134.743 116.398 134.74 116.397 134.737C116.396 134.734 116.394 134.731 116.393 134.728C116.392 134.726 116.391 134.723 116.389 134.72C116.388 134.717 116.387 134.714 116.385 134.711C116.384 134.708 116.383 134.705 116.381 134.703C116.38 134.7 116.379 134.697 116.378 134.694C116.376 134.691 116.375 134.688 116.374 134.685C116.372 134.683 116.371 134.68 116.37 134.677C116.368 134.674 116.367 134.671 116.366 134.668C116.365 134.665 116.363 134.662 116.362 134.66C116.361 134.657 116.359 134.654 116.358 134.651C116.357 134.648 116.355 134.645 116.354 134.642C116.353 134.64 116.352 134.637 116.35 134.634C116.349 134.631 116.348 134.628 116.346 134.625C116.345 134.622 116.344 134.62 116.342 134.617C116.341 134.614 116.34 134.611 116.338 134.608C116.337 134.605 116.336 134.602 116.335 134.599C116.333 134.597 116.332 134.594 116.331 134.591C116.329 134.588 116.328 134.585 116.327 134.582C116.325 134.579 116.324 134.577 116.323 134.574C116.322 134.571 116.32 134.568 116.319 134.565C116.318 134.562 116.316 134.559 116.315 134.557C116.314 134.554 116.312 134.551 116.311 134.548C116.31 134.545 116.309 134.542 116.307 134.539C116.306 134.536 116.305 134.534 116.303 134.531C116.302 134.528 116.301 134.525 116.299 134.522C116.298 134.519 116.297 134.516 116.296 134.514C116.294 134.511 116.293 134.508 116.292 134.505C116.29 134.502 116.289 134.499 116.288 134.496C116.286 134.493 116.285 134.491 116.284 134.488C116.283 134.485 116.281 134.482 116.28 134.479C116.279 134.476 116.277 134.473 116.276 134.471C116.275 134.468 116.273 134.465 116.272 134.462C116.271 134.459 116.269 134.456 116.268 134.453C116.267 134.451 116.266 134.448 116.264 134.445C116.263 134.442 116.262 134.439 116.26 134.436C116.259 134.433 116.258 134.43 116.256 134.428C116.255 134.425 116.254 134.422 116.253 134.419C116.251 134.416 116.25 134.413 116.249 134.41C116.247 134.408 116.246 134.405 116.245 134.402C116.243 134.399 116.242 134.396 116.241 134.393C116.24 134.39 116.238 134.387 116.237 134.385C116.236 134.382 116.234 134.379 116.233 134.376C116.232 134.373 116.23 134.37 116.229 134.367C116.228 134.365 116.227 134.362 116.225 134.359C116.224 134.356 116.223 134.353 116.221 134.35C116.22 134.347 116.219 134.345 116.217 134.342C116.216 134.339 116.215 134.336 116.213 134.333C116.212 134.33 116.211 134.327 116.21 134.324C116.208 134.322 116.207 134.319 116.206 134.316C116.204 134.313 116.203 134.31 116.202 134.307C116.2 134.304 116.199 134.302 116.198 134.299C116.197 134.296 116.195 134.293 116.194 134.29C116.193 134.287 116.191 134.284 116.19 134.282C116.189 134.279 116.187 134.276 116.186 134.273C116.185 134.27 116.184 134.267 116.182 134.264C116.181 134.261 116.18 134.259 116.178 134.256C116.177 134.253 116.176 134.25 116.174 134.247C116.173 134.244 116.172 134.241 116.171 134.239C116.169 134.236 116.168 134.233 116.167 134.23C116.165 134.227 116.164 134.224 116.163 134.221C116.161 134.218 116.16 134.216 116.159 134.213C116.158 134.21 116.156 134.207 116.155 134.204C116.154 134.201 116.152 134.198 116.151 134.196C116.15 134.193 116.148 134.19 116.147 134.187C116.146 134.184 116.144 134.181 116.143 134.178C116.142 134.176 116.141 134.173 116.139 134.17C116.138 134.167 116.137 134.164 116.135 134.161C116.134 134.158 116.133 134.155 116.131 134.153C116.13 134.15 116.129 134.147 116.128 134.144C116.126 134.141 116.125 134.138 116.124 134.135C116.122 134.133 116.121 134.13 116.12 134.127C116.118 134.124 116.117 134.121 116.116 134.118C116.115 134.115 116.113 134.112 116.112 134.11C116.111 134.107 116.109 134.104 116.108 134.101C116.107 134.098 116.105 134.095 116.104 134.092C116.103 134.09 116.102 134.087 116.1 134.084C116.099 134.081 116.098 134.078 116.096 134.075C116.095 134.072 116.094 134.07 116.092 134.067C116.091 134.064 116.09 134.061 116.088 134.058C116.087 134.055 116.086 134.052 116.085 134.049C116.083 134.047 116.082 134.044 116.081 134.041C116.079 134.038 116.078 134.035 116.077 134.032C116.075 134.029 116.074 134.027 116.073 134.024C116.072 134.021 116.07 134.018 116.069 134.015C116.068 134.012 116.066 134.009 116.065 134.007C116.064 134.004 116.062 134.001 116.061 133.998C116.06 133.995 116.059 133.992 116.057 133.989C116.056 133.986 116.055 133.984 116.053 133.981C116.052 133.978 116.051 133.975 116.049 133.972C116.048 133.969 116.047 133.966 116.046 133.964C116.044 133.961 116.043 133.958 116.042 133.955C116.04 133.952 116.039 133.949 116.038 133.946C116.036 133.943 116.035 133.941 116.034 133.938C116.033 133.935 116.031 133.932 116.03 133.929C116.029 133.926 116.027 133.923 116.026 133.921C116.025 133.918 116.023 133.915 116.022 133.912C116.021 133.909 116.019 133.906 116.018 133.903C116.017 133.901 116.016 133.898 116.014 133.895C116.013 133.892 116.012 133.889 116.01 133.886C116.009 133.883 116.008 133.88 116.006 133.878C116.005 133.875 116.004 133.872 116.003 133.869C116.001 133.866 116 133.863 115.999 133.86C115.997 133.858 115.996 133.855 115.995 133.852C115.993 133.849 115.992 133.846 115.991 133.843C115.99 133.84 115.988 133.837 115.987 133.835C115.986 133.832 115.984 133.829 115.983 133.826C115.982 133.823 115.98 133.82 115.979 133.817C115.978 133.815 115.977 133.812 115.975 133.809C115.974 133.806 115.973 133.803 115.971 133.8C115.97 133.797 115.969 133.795 115.967 133.792C115.966 133.789 115.965 133.786 115.963 133.783C115.962 133.78 115.961 133.777 115.96 133.774C115.958 133.772 115.957 133.769 115.956 133.766C115.954 133.763 115.953 133.76 115.952 133.757C115.95 133.754 115.949 133.752 115.948 133.749C115.947 133.746 115.945 133.743 115.944 133.74C115.943 133.737 115.941 133.734 115.94 133.732C115.939 133.729 115.937 133.726 115.936 133.723C115.935 133.72 115.934 133.717 115.932 133.714C115.931 133.711 115.93 133.709 115.928 133.706C115.927 133.703 115.926 133.7 115.924 133.697C115.923 133.694 115.922 133.691 115.921 133.689C115.919 133.686 115.918 133.683 115.917 133.68C115.915 133.677 115.914 133.674 115.913 133.671C115.911 133.668 115.91 133.666 115.909 133.663C115.908 133.66 115.906 133.657 115.905 133.654C115.904 133.651 115.902 133.648 115.901 133.646C115.9 133.643 115.898 133.64 115.897 133.637C115.896 133.634 115.894 133.631 115.893 133.628C115.892 133.626 115.891 133.623 115.889 133.62C115.888 133.617 115.887 133.614 115.885 133.611C115.884 133.608 115.883 133.605 115.881 133.603C115.88 133.6 115.879 133.597 115.878 133.594C115.876 133.591 115.875 133.588 115.874 133.585C115.872 133.583 115.871 133.58 115.87 133.577C115.868 133.574 115.867 133.571 115.866 133.568C115.865 133.565 115.863 133.562 115.862 133.56C115.861 133.557 115.859 133.554 115.858 133.551C115.857 133.548 115.855 133.545 115.854 133.542C115.853 133.54 115.852 133.537 115.85 133.534C115.849 133.531 115.848 133.528 115.846 133.525C115.845 133.522 115.844 133.52 115.842 133.517C115.841 133.514 115.84 133.511 115.838 133.508C115.837 133.505 115.836 133.502 115.835 133.499C115.833 133.497 115.832 133.494 115.831 133.491C115.829 133.488 115.828 133.485 115.827 133.482C115.825 133.479 115.824 133.477 115.823 133.474C115.822 133.471 115.82 133.468 115.819 133.465C115.818 133.462 115.816 133.459 115.815 133.457C115.814 133.454 115.812 133.451 115.811 133.448C115.81 133.445 115.809 133.442 115.807 133.439C115.806 133.436 115.805 133.434 115.803 133.431C115.802 133.428 115.801 133.425 115.799 133.422C115.798 133.419 115.797 133.416 115.796 133.414C115.794 133.411 115.793 133.408 115.792 133.405C115.79 133.402 115.789 133.399 115.788 133.396C115.786 133.393 115.785 133.391 115.784 133.388C115.783 133.385 115.781 133.382 115.78 133.379C115.779 133.376 115.777 133.373 115.776 133.371C115.775 133.368 115.773 133.365 115.772 133.362C115.771 133.359 115.769 133.356 115.768 133.353C115.767 133.351 115.766 133.348 115.764 133.345C115.763 133.342 115.762 133.339 115.76 133.336C115.759 133.333 115.758 133.33 115.756 133.328C115.755 133.325 115.754 133.322 115.753 133.319C115.751 133.316 115.75 133.313 115.749 133.31C115.747 133.308 115.746 133.305 115.745 133.302C115.743 133.299 115.742 133.296 115.741 133.293C115.74 133.29 115.738 133.287 115.737 133.285C115.736 133.282 115.734 133.279 115.733 133.276C115.732 133.273 115.73 133.27 115.729 133.267C115.728 133.265 115.727 133.262 115.725 133.259C115.724 133.256 115.723 133.253 115.721 133.25C115.72 133.247 115.719 133.245 115.717 133.242C115.716 133.239 115.715 133.236 115.713 133.233C115.712 133.23 115.711 133.227 115.71 133.224C115.708 133.222 115.707 133.219 115.706 133.216C115.704 133.213 115.703 133.21 115.702 133.207C115.7 133.204 115.699 133.202 115.698 133.199C115.697 133.196 115.695 133.193 115.694 133.19C115.693 133.187 115.691 133.184 115.69 133.182C115.689 133.179 115.687 133.176 115.686 133.173C115.685 133.17 115.684 133.167 115.682 133.164C115.681 133.161 115.68 133.159 115.678 133.156C115.677 133.153 115.676 133.15 115.674 133.147C115.673 133.144 115.672 133.141 115.671 133.139C115.669 133.136 115.668 133.133 115.667 133.13C115.665 133.127 115.664 133.124 115.663 133.121C115.661 133.118 115.66 133.116 115.659 133.113C115.658 133.11 115.656 133.107 115.655 133.104C115.654 133.101 115.652 133.098 115.651 133.096C115.65 133.093 115.648 133.09 115.647 133.087C115.646 133.084 115.644 133.081 115.643 133.078C115.642 133.076 115.641 133.073 115.639 133.07C115.638 133.067 115.637 133.064 115.635 133.061C115.634 133.058 115.633 133.055 115.631 133.053C115.63 133.05 115.629 133.047 115.628 133.044C115.626 133.041 115.625 133.038 115.624 133.035C115.622 133.033 115.621 133.03 115.62 133.027C115.618 133.024 115.617 133.021 115.616 133.018C115.615 133.015 115.613 133.012 115.612 133.01C115.611 133.007 115.609 133.004 115.608 133.001C115.607 132.998 115.605 132.995 115.604 132.992C115.603 132.99 115.602 132.987 115.6 132.984C115.599 132.981 115.598 132.978 115.596 132.975C115.595 132.972 115.594 132.97 115.592 132.967C115.591 132.964 115.59 132.961 115.588 132.958C115.587 132.955 115.586 132.952 115.585 132.949C115.583 132.947 115.582 132.944 115.581 132.941C115.579 132.938 115.578 132.935 115.577 132.932C115.575 132.929 115.574 132.927 115.573 132.924C115.572 132.921 115.57 132.918 115.569 132.915C115.568 132.912 115.566 132.909 115.565 132.907C115.564 132.904 115.562 132.901 115.561 132.898C115.56 132.895 115.559 132.892 115.557 132.889C115.556 132.886 115.555 132.884 115.553 132.881C115.552 132.878 115.551 132.875 115.549 132.872C115.548 132.869 115.547 132.866 115.546 132.864C115.544 132.861 115.543 132.858 115.542 132.855C115.54 132.852 115.539 132.849 115.538 132.846C115.536 132.843 115.535 132.841 115.534 132.838C115.533 132.835 115.531 132.832 115.53 132.829C115.529 132.826 115.527 132.823 115.526 132.821C115.525 132.818 115.523 132.815 115.522 132.812C115.521 132.809 115.519 132.806 115.518 132.803C115.517 132.801 115.516 132.798 115.514 132.795C115.513 132.792 115.512 132.789 115.51 132.786L113.69 133.614ZM115.706 138.047C116.378 139.392 117.052 140.672 117.726 141.886L119.474 140.914C118.815 139.728 118.155 138.474 117.494 137.153L115.706 138.047ZM117.71 141.856C120.373 147.049 122.362 151.161 123.683 154.199L125.517 153.401C124.171 150.306 122.16 146.151 119.49 140.944L117.71 141.856ZM123.706 154.247C125.185 157.205 126.605 159.71 127.968 161.755L129.632 160.645C128.328 158.69 126.949 156.261 125.494 153.353L123.706 154.247ZM128.8 160.2H128.6V162.2H128.8V160.2ZM127.725 161.685C131.482 168.461 135.156 173.607 138.757 177.071C142.354 180.531 145.973 182.4 149.6 182.4V180.4C146.694 180.4 143.546 178.903 140.143 175.629C136.744 172.36 133.184 167.406 129.475 160.715L127.725 161.685ZM149.6 182.4H150.8V180.4H149.6V182.4ZM151.8 181.4V70.6H149.8V181.4H151.8ZM151.116 71.5487C151.486 71.4254 151.927 71.299 152.443 71.1701L151.957 69.2299C151.406 69.3676 150.914 69.5079 150.484 69.6513L151.116 71.5487ZM152.571 71.1285C153.32 70.8291 154.115 70.3917 154.955 69.832L153.845 68.1679C153.085 68.6749 152.414 69.0375 151.829 69.2715L152.571 71.1285ZM153.4 69V69.2H155.4V69H153.4ZM154.86 70.0877C158.566 68.1661 161.986 65.5637 165.122 62.2919L163.678 60.9081C160.68 64.0362 157.434 66.5005 153.94 68.3122L154.86 70.0877ZM165.107 62.3071C167.158 60.2562 168.699 58.2373 169.694 56.2472L167.906 55.3528C167.034 57.096 165.642 58.9438 163.693 60.8929L165.107 62.3071ZM169.694 56.2472C170.68 54.2767 171.254 52.2831 171.397 50.2712L169.403 50.1287C169.28 51.8503 168.787 53.5899 167.906 55.3528L169.694 56.2472ZM170.955 49.3679L169.755 48.5679L168.645 50.232L169.845 51.032L170.955 49.3679ZM97.2 120.4C92.9361 120.4 87.37 121.359 80.5353 123.236L81.0647 125.164C87.83 123.307 93.1972 122.4 97.2 122.4V120.4ZM81.8 124.2V70.6H79.8V124.2H81.8ZM80.3685 71.5021C81.6951 72.1366 83.2804 73.5435 85.1148 75.8693C86.9348 78.1768 88.9383 81.3083 91.1238 85.2819L92.8762 84.3181C90.6617 80.2917 88.5985 77.0565 86.6852 74.6307C84.7863 72.2232 82.9715 70.5301 81.2315 69.6979L80.3685 71.5021ZM91.1056 85.2472C93.2301 89.4963 96.2238 95.8822 100.089 104.413L101.911 103.587C98.0429 95.0511 95.0366 88.637 92.8944 84.3528L91.1056 85.2472ZM100.091 104.417C102.358 109.351 104.224 113.417 105.691 116.617L107.509 115.783C106.042 112.583 104.175 108.516 101.909 103.582L100.091 104.417ZM105.698 116.631C107.165 119.7 108.302 122.039 109.106 123.647L110.894 122.753C110.098 121.161 108.968 118.834 107.502 115.769L105.698 116.631ZM110.271 122.237C105.919 121.014 101.562 120.4 97.2 120.4V122.4C101.372 122.4 105.547 122.986 109.729 124.163L110.271 122.237ZM131.112 113.19C129.911 110.521 128.91 108.318 128.108 106.581L126.292 107.419C127.09 109.148 128.089 111.345 129.288 114.01L131.112 113.19ZM128.108 106.581C127.309 104.85 126.714 103.527 126.319 102.606L124.481 103.394C124.886 104.34 125.491 105.683 126.292 107.419L128.108 106.581ZM125.084 103.949C126.796 104.519 128.637 104.8 130.6 104.8V102.8C128.829 102.8 127.204 102.547 125.716 102.051L125.084 103.949ZM130.6 104.8H136V102.8H130.6V104.8ZM136 104.8C137.626 104.8 139.064 104.732 140.31 104.594L140.09 102.606C138.936 102.734 137.574 102.8 136 102.8V104.8ZM140.3 104.595C141.7 104.455 142.898 104.169 143.847 103.694L142.953 101.906C142.302 102.231 141.367 102.478 140.1 102.605L140.3 104.595ZM142.4 102.806L142.6 138.606L144.6 138.594L144.4 102.794L142.4 102.806ZM144.426 138.037C142.446 135.132 140.327 131.69 138.07 127.707L136.33 128.693C138.607 132.71 140.754 136.202 142.774 139.163L144.426 138.037ZM138.089 127.741C135.965 123.627 133.639 118.777 131.111 113.188L129.289 114.012C131.827 119.623 134.168 124.506 136.311 128.659L138.089 127.741Z" fill="black"/>
</g>
<defs>
<clipPath id="clip0_440_33">
<rect width="223" height="223" fill="white"/>
</clipPath>
</defs>
</svg>
